Coordinates
version=1
nRows=14
nColumns=40
inDegrees=yes

Units are S.I. units (second, meters, Newtons, ...)
Angles are in degrees.

endheader
time	pelvis_tilt	pelvis_list	pelvis_rotation	pelvis_tx	pelvis_ty	pelvis_tz	hip_flexion_r	hip_adduction_r	hip_rotation_r	knee_angle_r	knee_angle_r_beta	ankle_angle_r	subtalar_angle_r	mtp_angle_r	hip_flexion_l	hip_adduction_l	hip_rotation_l	knee_angle_l	knee_angle_l_beta	ankle_angle_l	subtalar_angle_l	mtp_angle_l	lumbar_extension	lumbar_bending	lumbar_rotation	arm_flex_r	arm_add_r	arm_rot_r	elbow_flex_r	pro_sup_r	wrist_flex_r	wrist_dev_r	arm_flex_l	arm_add_l	arm_rot_l	elbow_flex_l	pro_sup_l	wrist_flex_l	wrist_dev_l
     42.28500000	     -6.01433403	     -6.81776939	      6.36058509	      1.05302315	      0.91239217	      0.45300923	     -3.12325154	      6.30604076	    -20.23110966	      5.71782702	      5.71782702	     16.56731407	      6.22671086	     -4.21325068	     36.38737830	     -7.92384612	     -2.98804331	     17.30226004	     17.30226004	      5.57249923	     -6.71382151	     11.54218541	     -8.18506955	      7.21859267	      4.41223376	     52.53269551	    -16.70473983	     -6.22837010	    100.59070212	     44.33774185	      0.00000000	      0.00000000	    -19.89108525	     -5.73685381	     12.72706987	     26.62992152	     43.81470778	      0.00000000	      0.00000000
     42.29621429	     -6.19803991	     -6.77375748	      6.14552139	      1.05403318	      0.91071458	      0.45105773	     -3.49576264	      6.05314308	    -20.15456023	      6.07293367	      6.07293367	     17.26211948	      6.52173754	     -3.72150919	     36.21824410	     -7.74250101	     -3.47415266	     17.59980168	     17.59980168	      4.28983520	     -7.85615491	     10.53421318	     -7.85602740	      7.15774882	      4.44293731	     53.00357903	    -16.38260421	     -5.88356347	    102.07130418	     44.30629666	      0.00000000	      0.00000000	    -20.41053569	     -5.61406250	     12.74228075	     26.60481100	     43.84923140	      0.00000000	      0.00000000
     42.30742857	     -6.27986026	     -6.69491458	      5.89988133	      1.05524499	      0.90925877	      0.44903606	     -3.93227616	      5.73127656	    -20.11079739	      6.58403587	      6.58403587	     18.24883289	      6.92514060	     -2.38470018	     35.83064972	     -7.56236636	     -3.78804313	     17.86208341	     17.86208341	      2.20050861	     -9.41887777	      7.71815434	     -7.64375123	      7.02751221	      4.83002036	     53.19403921	    -16.53609640	     -5.78067908	    103.50852795	     44.32379756	      0.00000000	      0.00000000	    -20.60347357	     -5.62387726	     12.65758098	     26.59034258	     43.97897174	      0.00000000	      0.00000000
     42.31864286	     -6.42050515	     -6.60975205	      5.65152531	      1.05636447	      0.90782517	      0.44698252	     -4.22498006	      5.37780247	    -19.84175917	      7.17897554	      7.17897554	     18.73973880	      6.82644987	     -2.31432791	     35.77400575	     -7.45898594	     -4.09325812	     18.77386433	     18.77386433	      1.31695248	    -10.40629478	      7.34036287	     -7.37404250	      6.89843417	      4.73480620	     53.42044785	    -16.02327814	     -5.54471099	    104.46686342	     44.30331346	      0.00000000	      0.00000000	    -20.81878085	     -5.47697278	     12.68435334	     26.41195300	     44.00209467	      0.00000000	      0.00000000
     42.32985714	     -6.49740367	     -6.50082206	      5.41946142	      1.05754112	      0.90665267	      0.44482822	     -4.51665688	      4.96963957	    -19.54501516	      7.91599362	      7.91599362	     19.23686684	      6.66819078	     -2.26126804	     35.67614199	     -7.34031315	     -4.15104844	     19.80888150	     19.80888150	      0.58474431	    -11.44132286	      6.89030484	     -7.18181828	      6.75538752	      4.71267992	     53.42208206	    -15.69805906	     -5.34521949	    105.40903734	     44.27937576	      0.00000000	      0.00000000	    -20.84825230	     -5.40800196	     12.67441856	     26.27566453	     44.02598110	      0.00000000	      0.00000000
     42.34107143	     -6.59350155	     -6.32785810	      5.16112777	      1.05867197	      0.90572020	      0.44264688	     -4.63373713	      4.43212558	    -19.17692363	      8.94975388	      8.94975388	     19.72853692	      6.29771755	     -2.08893937	     35.57467056	     -7.16768985	     -4.09470793	     20.83235464	     20.83235464	     -0.14289027	    -12.63500750	      6.11361235	     -6.99888319	      6.51174925	      4.75591218	     53.03704266	    -15.47989179	     -5.14469969	    106.69271729	     44.25028807	      0.00000000	      0.00000000	    -20.65414513	     -5.38903681	     12.62402980	     26.03908589	     44.07300047	      0.00000000	      0.00000000
     42.35228571	     -6.44271777	     -6.09941148	      4.93819943	      1.06001894	      0.90549601	      0.44041195	     -5.17810521	      3.91081065	    -18.88235183	      9.65049316	      9.65049316	     19.91363754	      6.10043237	     -2.15095683	     35.26316450	     -7.02397510	     -4.10725124	     22.04499339	     22.04499339	     -0.20029969	    -13.32603419	      5.79768456	     -7.06906660	      6.17713009	      4.69749500	     52.51257675	    -15.18121608	     -4.97113704	    107.02114884	     44.23596997	      0.00000000	      0.00000000	    -20.30415963	     -5.40063183	     12.61770801	     26.03163447	     44.08725568	      0.00000000	      0.00000000
     42.36350000	     -6.60809202	     -6.03615012	      4.74441498	      1.06087350	      0.90499044	      0.43803268	     -4.73404726	      3.34725161	    -18.39385242	     11.53303548	     11.53303548	     20.14216428	      5.15380546	     -2.40062273	     35.37413583	     -6.94211806	     -3.83782585	     23.27085093	     23.27085093	     -0.17874710	    -14.15995462	      5.19658545	     -6.85629604	      6.09902257	      4.56120224	     51.87471999	    -14.94241864	     -4.79707838	    108.44577646	     44.19692974	      0.00000000	      0.00000000	    -19.78891785	     -5.35537789	     12.59424822	     25.71520318	     44.12646144	      0.00000000	      0.00000000
     42.37471429	     -6.57243138	     -5.85429015	      4.52083132	      1.06183741	      0.90526726	      0.43568046	     -4.53182854	      2.71966318	    -17.77698340	     13.32283010	     13.32283010	     20.07814890	      3.96100803	     -2.84383011	     35.13991370	     -6.80853919	     -3.73618143	     24.34527385	     24.34527385	      0.19898113	    -14.74567440	      4.76386990	     -6.85292919	      5.85892555	      4.68262191	     50.69527774	    -14.98655022	     -4.73069812	    109.65944531	     44.17212079	      0.00000000	      0.00000000	    -18.93073867	     -5.40900322	     12.54049667	     25.24155290	     44.18749310	      0.00000000	      0.00000000
     42.38592857	     -6.51442863	     -5.70644431	      4.32951902	      1.06270994	      0.90591555	      0.43323068	     -4.17191721	      2.07898402	    -17.29325837	     15.40827345	     15.40827345	     19.74970400	      2.77960834	     -3.48179517	     34.85463062	     -6.70410641	     -3.67286561	     25.35942284	     25.35942284	      0.90767535	    -15.07511695	      4.43552061	     -6.89299068	      5.66203770	      4.59288450	     49.51672668	    -14.84952352	     -4.59577669	    110.36722358	     44.15403148	      0.00000000	      0.00000000	    -17.99704390	     -5.43861974	     12.51816286	     24.98802223	     44.23194622	      0.00000000	      0.00000000
     42.39714286	     -6.46889114	     -5.56399363	      4.11815632	      1.06342800	      0.90695624	      0.43076296	     -3.52312163	      1.41281498	    -16.70119533	     17.92125577	     17.92125577	     19.06957592	      1.11023251	     -4.50395104	     34.46107094	     -6.60897283	     -3.71000665	     26.14643497	     26.14643497	      1.78986845	    -15.23120095	      4.30149920	     -6.91698822	      5.48839108	      4.57608550	     48.02295374	    -14.81748613	     -4.45612070	    111.04513662	     44.13794846	      0.00000000	      0.00000000	    -16.88691229	     -5.51385850	     12.48394891	     24.64854788	     44.28581290	      0.00000000	      0.00000000
     42.40835714	     -6.32624056	     -5.41928137	      3.89493498	      1.06414301	      0.90844937	      0.42827372	     -2.82581793	      0.71449571	    -16.24436168	     20.66916690	     20.66916690	     18.18520965	     -0.42856266	     -5.36173233	     33.84547832	     -6.52465671	     -3.87509686	     26.74976457	     26.74976457	      2.77306014	    -15.32461416	      4.05173079	     -7.04445857	      5.30615281	      4.42599557	     46.44493702	    -14.64991466	     -4.22254445	    111.28511469	     44.12542266	      0.00000000	      0.00000000	    -15.78820851	     -5.62137373	     12.45391344	     24.55804970	     44.32673680	      0.00000000	      0.00000000
     42.41957143	     -6.35990479	     -5.32965395	      3.65267798	      1.06441733	      0.90987499	      0.42593617	     -1.63335567	      0.16488705	    -15.29313404	     23.62488169	     23.62488169	     15.39620832	     -4.01460186	    -10.54105803	     33.40617538	     -6.49832705	     -4.05540661	     27.28737134	     27.28737134	      4.28707103	    -14.89545159	      5.10794872	     -7.03199528	      5.17396965	      5.02225611	     44.11501956	    -15.29777772	     -4.69599616	    112.62356668	     44.17323464	      0.00000000	      0.00000000	    -13.66745820	     -5.59365464	     12.25725609	     22.89905105	     44.52754479	      0.00000000	      0.00000000
     42.43078571	     -6.33061440	     -5.16157896	      3.35608841	      1.06459942	      0.91160508	      0.42356105	     -0.12808799	     -0.68072736	    -14.91096924	     27.45113470	     27.45113470	     14.15587616	     -5.94979789	    -11.02174680	     32.64803045	     -6.40452009	     -4.45417498	     27.37148131	     27.37148131	      5.09457976	    -14.72909799	      4.69678300	     -7.06977737	      4.99612521	      4.77775611	     42.32621329	    -14.94226926	     -4.22700080	    112.21236730	     44.17223483	      0.00000000	      0.00000000	    -12.49165271	     -5.76013227	     12.18664673	     23.25655977	     44.57259324	      0.00000000	      0.00000000
